# xmcd CD database file
#
# Track frame offsets:
#	150
#	32969
#	67398
#	92652
#	120665
#	152516
#	174348
#	208219
#	238315
#
# Disc length: 3511 seconds
#
# Revision: 0
# Processed by: cddbd v1.5.2PL0 Copyright (c) Steve Scherf et al.
# Submitted via: CDex 1.51
#
DISCID=800db509
DTITLE=Dan Gibson - Island Retreat
DYEAR=2003
DGENRE=New Age
TTITLE0=Pomaika (Blessing)
TTITLE1=Haulelau (Autumn)
TTITLE2=Hula Kakahiaka (Morning Dance)
TTITLE3=Ohana (Family)
TTITLE4=Molehelehu (Dusk)
TTITLE5=A Hui Hou (Until We Meet Again)
TTITLE6=Puanani (Heavenly Lei)
TTITLE7=Halekulani (House Of Heaven)
TTITLE8=Aloha Oe (Farewell To Thee)
EXTD=YEAR: 2003
EXTT0=
EXTT1=
EXTT2=
EXTT3=
EXTT4=
EXTT5=
EXTT6=
EXTT7=
EXTT8=
PLAYORDER=
